<svg width="178" height="60" viewBox="0 0 178 60" fill="none" xmlns="http://www.w3.org/2000/svg">
<path d="M42 49V9L22 28.8333L2 9V49" stroke="#317773" stroke-width="3"/>
<path d="M2 2L22 21.8333L42 2" stroke="#317773" stroke-width="3"/>
<path d="M36 17C36 15.8954 36.8954 15 38 15V49H36V17Z" fill="#317773"/>
<path d="M8 17C8 15.8954 7.10457 15 6 15V49H8V17Z" fill="#317773"/>
<path d="M51.704 31.556V38.08H58.816V40.18H51.704V46.9H59.656V49H49.156V29.456H59.656V31.556H51.704ZM66.0595 46.928H72.8915V49H63.5115V29.484H66.0595V46.928ZM78.1454 31.556V38.08H85.2574V40.18H78.1454V46.9H86.0974V49H75.5974V29.456H86.0974V31.556H78.1454ZM109.749 29.624V49H107.201V34.552L100.761 49H98.9689L92.5009 34.524V49H89.9529V29.624H92.6969L99.8649 45.64L107.033 29.624H109.749ZM116.618 31.556V38.08H123.73V40.18H116.618V46.9H124.57V49H114.07V29.456H124.57V31.556H116.618ZM143.77 49H141.222L130.974 33.46V49H128.426V29.456H130.974L141.222 44.968V29.456H143.77V49ZM160.125 29.484V31.556H154.805V49H152.257V31.556H146.909V29.484H160.125ZM169.449 49.196C168.161 49.196 167.004 48.972 165.977 48.524C164.969 48.0573 164.176 47.4227 163.597 46.62C163.019 45.7987 162.72 44.856 162.701 43.792H165.417C165.511 44.7067 165.884 45.4813 166.537 46.116C167.209 46.732 168.18 47.04 169.449 47.04C170.663 47.04 171.615 46.7413 172.305 46.144C173.015 45.528 173.369 44.744 173.369 43.792C173.369 43.0453 173.164 42.4387 172.753 41.972C172.343 41.5053 171.829 41.1507 171.213 40.908C170.597 40.6653 169.767 40.404 168.721 40.124C167.433 39.788 166.397 39.452 165.613 39.116C164.848 38.78 164.185 38.2573 163.625 37.548C163.084 36.82 162.813 35.8493 162.813 34.636C162.813 33.572 163.084 32.6293 163.625 31.808C164.167 30.9867 164.923 30.352 165.893 29.904C166.883 29.456 168.012 29.232 169.281 29.232C171.111 29.232 172.604 29.6893 173.761 30.604C174.937 31.5187 175.6 32.732 175.749 34.244H172.949C172.856 33.4973 172.464 32.844 171.773 32.284C171.083 31.7053 170.168 31.416 169.029 31.416C167.965 31.416 167.097 31.696 166.425 32.256C165.753 32.7973 165.417 33.5627 165.417 34.552C165.417 35.2613 165.613 35.84 166.005 36.288C166.416 36.736 166.911 37.0813 167.489 37.324C168.087 37.548 168.917 37.8093 169.981 38.108C171.269 38.4627 172.305 38.8173 173.089 39.172C173.873 39.508 174.545 40.04 175.105 40.768C175.665 41.4773 175.945 42.448 175.945 43.68C175.945 44.632 175.693 45.528 175.189 46.368C174.685 47.208 173.939 47.8893 172.949 48.412C171.96 48.9347 170.793 49.196 169.449 49.196Z" fill="black"/>
</svg>
